PathFileType	4	(X/Y/Z)	C:\Users\chris\Documents\GitHub\baseballds\vids\pitch3_Sports2D\pitch3_Sports2D_m_person00.trc
DataRate	CameraRate	NumFrames	NumMarkers	Units	OrigDataRate	OrigDataStartFrame	OrigNumFrames
30	30	8	22	m	30	210	240
Frame#	Time	Hip			RHip			RKnee			RAnkle			RBigToe			RSmallToe			RHeel			LHip			LKnee			LAnkle			LBigToe			LSmallToe			LHeel			Neck			Head			Nose			RShoulder			RElbow			RWrist			LShoulder			LElbow			LWrist		
		X1	Y1	Z1	X2	Y2	Z2	X3	Y3	Z3	X4	Y4	Z4	X5	Y5	Z5	X6	Y6	Z6	X7	Y7	Z7	X8	Y8	Z8	X9	Y9	Z9	X10	Y10	Z10	X11	Y11	Z11	X12	Y12	Z12	X13	Y13	Z13	X14	Y14	Z14	X15	Y15	Z15	X16	Y16	Z16	X17	Y17	Z17	X18	Y18	Z18	X19	Y19	Z19	X20	Y20	Z20	X21	Y21	Z21	X22	Y22	Z22
210	7.0	0.7543853661486679	0.6944732674666395	0.0	0.8249109552169352	0.6768453441995828	0.0	0.7676697384301635	0.37301969657985906	0.0	0.6218868387953462	0.2425108746610055	0.0	0.4878963766781753	0.0601020193001999	0.0	0.5320319977795057	0.07357223702568906	0.0	0.5807057463919234	0.25715780979552455	0.0	0.6903065487570066	0.6794424724843184	0.0	0.7536558114880222	0.47323899790128965	0.0	0.7664056677633464	0.3215836171127393	0.0	0.8071768935159175	0.3094136530130799	0.0	0.795337152068057	0.2972161838536271	0.0	0.7491657540360881	0.30208055119658456	0.0	0.7344761858771008	1.021828466166998	0.0	0.6902189071346022	1.1689422383277754	0.0	0.7506520157695625	1.0894741864044302	0.0	0.8750928962412072	0.9998500778842915	0.0	1.0651436483868328	1.0693430537645465	0.0	1.0708118333034395	1.140945190637551	0.0	0.6391768504349589	0.9153331489222347	0.0	0.6205571973444793	0.7240785777095928	0.0	0.6933555695861631	0.6755230518304106	0.0
211	7.033333333333333	0.7663216933071543	0.7113167789269919	0.0	0.8332133581953142	0.696051773903031	0.0	0.7789184093675058	0.3953548846611423	0.0	0.6246843147374374	0.2604122398022277	0.0	0.5082635280401279	0.08196988073667344	0.0	0.5474069508596746	0.0964322818356084	0.0	0.5785159830507861	0.27227890324305376	0.0	0.7027131376336374	0.6988210478713158	0.0	0.742265275299157	0.4712145000769545	0.0	0.7604370020066861	0.3249245709205871	0.0	0.7943490941477189	0.29264853760876675	0.0	0.7794323538076975	0.2832165941731784	0.0	0.7503856895143227	0.30922644323433274	0.0	0.730894512230081	1.0285908754460495	0.0	0.6805157364384772	1.1671182384216527	0.0	0.7141010338604675	1.0911443586493936	0.0	0.8734877749152545	1.0077558809940865	0.0	1.0284914851157827	1.0487792115626693	0.0	1.0592202048574975	1.1178743087750083	0.0	0.6412725551543149	0.9304876810839159	0.0	0.6256935391009002	0.7466987188223175	0.0	0.695528335784488	0.7095001791571657	0.0
212	7.066666666666666	0.7805544191419893	0.7429714987926227	0.0	0.8452352886252723	0.7297359298774808	0.0	0.7948869067579409	0.4335655051941331	0.0	0.6283383859762385	0.28907489910920914	0.0	0.5299247300306396	0.11452603709366864	0.0	0.5635277335161076	0.1237783051159764	0.0	0.58125402920914	0.2983188451523066	0.0	0.7162475893918465	0.7281650348434846	0.0	0.7363580522778521	0.48360239638255736	0.0	0.7598723579424966	0.32955066553742796	0.0	0.7820359058504124	0.2849248957287447	0.0	0.7687879949226727	0.2806539734788936	0.0	0.7548763430617672	0.30708779543034503	0.0	0.7322278727014191	1.0464932549218469	0.0	0.6864478780381356	1.1804539752489713	0.0	0.6930212705472675	1.10401085518791	0.0	0.861096189499207	1.0249621592833194	0.0	0.9385727493294118	0.9895679037372085	0.0	0.9042650631142496	1.0368697993539235	0.0	0.6496752110971709	0.9626101061779544	0.0	0.637977390043914	0.7776342149985532	0.0	0.6959906284897613	0.7838786800580755	0.0
213	7.1	0.7955246734659895	0.7859017847927059	0.0	0.8584653776837902	0.7733004762598055	0.0	0.8167236105049833	0.4791876110254456	0.0	0.6447329956747763	0.33395247893382596	0.0	0.5493204505863666	0.1695844289614027	0.0	0.5829756017796172	0.16857866469943816	0.0	0.6007423469381309	0.34169476008697597	0.0	0.7291035849616427	0.7658080606144354	0.0	0.7408260203608898	0.5068516467722212	0.0	0.761154889853112	0.33142844055785986	0.0	0.7764196860225874	0.28598560061672745	0.0	0.7597473176414714	0.28474738433749336	0.0	0.7580456361683489	0.29689797983467453	0.0	0.7357382533937844	1.071523245168367	0.0	0.7015640612250192	1.204700918869155	0.0	0.691621174881005	1.1266971120505171	0.0	0.841845285576173	1.0454589562735892	0.0	0.8361114191706395	0.9333034939587115	0.0	0.7291939547263481	0.95189818168518	0.0	0.6632287258552836	1.0061794199217147	0.0	0.6539105224580707	0.8190747444644517	0.0	0.6758007271271999	0.831512915646334	0.0
214	7.133333333333333	0.8064333665340511	0.8284160140712773	0.0	0.8681998598283065	0.8157020117671107	0.0	0.8444045417663467	0.5190067402146237	0.0	0.6889045554984071	0.3980803218542996	0.0	0.5861117012887107	0.247887311052084	0.0	0.6274109684497653	0.24611096721168615	0.0	0.6507435321719239	0.40831522853376523	0.0	0.7381275628217497	0.8045357753457745	0.0	0.7500179689168881	0.5335243616910583	0.0	0.76169161125874	0.33003303398438455	0.0	0.7771114868742682	0.2858723908692624	0.0	0.7514869679694608	0.2866552846486187	0.0	0.7593385147393119	0.28601715828456653	0.0	0.7400638960107533	1.0968491478424371	0.0	0.7170825115460409	1.2306961025888241	0.0	0.7026847986861225	1.153671998239086	0.0	0.8253751046362423	1.0648152760261689	0.0	0.7597122169388738	0.9127401626189949	0.0	0.6260735370029538	0.8944303467153929	0.0	0.6780576775545416	1.0545625932585685	0.0	0.6711426965660591	0.8802663417571862	0.0	0.6418091651694231	0.837208250452783	0.0
215	7.166666666666667	0.8083498949421438	0.8587549310172182	0.0	0.8714191042979182	0.8469343775005292	0.0	0.8763575089102892	0.5483993946283569	0.0	0.7677708435972271	0.4778003059885556	0.0	0.6780884806814348	0.32999414533587246	0.0	0.7287923127320052	0.3618921815203851	0.0	0.740742557533607	0.4978362963999455	0.0	0.7415542714924293	0.83431063081806	0.0	0.7542006079067652	0.5513654968632844	0.0	0.7607027412606052	0.3260649804277127	0.0	0.7784856718194276	0.28375757356279513	0.0	0.7462026897856415	0.28521473000682357	0.0	0.7592361797664506	0.28154183090780566	0.0	0.7426379949098845	1.11788623652134	0.0	0.7287099563850755	1.251628318670964	0.0	0.7140695486388196	1.1783287621221248	0.0	0.8162563217514563	1.080175150789317	0.0	0.7227620037457132	0.9155637233036265	0.0	0.5918752705901611	0.8623648452697866	0.0	0.6873371088072816	1.0966438015388644	0.0	0.6876498121284355	0.9526063661424276	0.0	0.6147581648008326	0.8521719049502072	0.0
216	7.2	0.8024864119531148	0.8720843035669498	0.0	0.86895432662242	0.8625489299218639	0.0	0.9068907051267946	0.5739333476520627	0.0	0.8683610145966036	0.560181870479965	0.0	0.8354899844609981	0.3972237657507277	0.0	0.8870162156397825	0.4951348530107943	0.0	0.8579971136326724	0.5944809295630328	0.0	0.7398403384224984	0.8485456891219691	0.0	0.7511542122808514	0.5554211478504252	0.0	0.7591212185480148	0.32076443834937146	0.0	0.7760338302022628	0.2875161823175669	0.0	0.7445376413527398	0.2862132337326915	0.0	0.7595739429930356	0.2832364577167326	0.0	0.742234009527855	1.1351322641619788	0.0	0.7367870587930289	1.2664883108985912	0.0	0.7190198034047539	1.1960878140046676	0.0	0.8114623511646123	1.0901100260796341	0.0	0.7156919481457502	0.9157518806605627	0.0	0.5920773354226392	0.8576331674814489	0.0	0.6879718805010381	1.123896054640518	0.0	0.7004320462405093	1.0149200408106398	0.0	0.5988435262693337	0.9075402161482087	0.0
217	7.233333333333333	0.7948675917947147	0.8728225905320486	0.0	0.8633422534590576	0.8657093423437662	0.0	0.9312113779040718	0.5998947749936142	0.0	0.9634893016476463	0.6335104631930074	0.0	1.0146988928050926	0.47230431125247024	0.0	1.0508935681116645	0.6078279653197008	0.0	0.9689210797952974	0.6768529238697075	0.0	0.7343304497613691	0.8489318216265321	0.0	0.7458571074118024	0.5527559574128706	0.0	0.7586527496435708	0.3174357414237959	0.0	0.770865537185569	0.2968214315267293	0.0	0.7445248825225022	0.2909613302817989	0.0	0.7620218847892404	0.2867555359644481	0.0	0.7408336731637386	1.1510869896837879	0.0	0.7420543359140602	1.277383269244517	0.0	0.719281810051548	1.2069883373537265	0.0	0.8093214153076969	1.096473931344649	0.0	0.7213104490979174	0.9128627541366582	0.0	0.604542196828419	0.8679654540551338	0.0	0.6821076872718599	1.137121598300842	0.0	0.705700299626659	1.0546627440701242	0.0	0.582979700011868	0.9744962214628127	0.0
